<svg xmlns="http://www.w3.org/2000/svg" viewBox="0 11.569999694824219 196.8800048828125 37.36000061035156" data-asc="0.96875" width="196.8800048828125" height="37.36000061035156"><defs/><g fill="#000000"><g transform="translate(0, 0)"><path d="M9.86 12.06L9.86 48.44L0 48.44L0 12.06L9.86 12.06ZM13.38 12.06L25.68 12.06L34.13 32.67L34.52 32.67L43.02 12.06L55.27 12.06L55.27 48.44L45.61 48.44L45.61 27.39L45.36 27.39L37.26 48.14L31.40 48.14L23.34 27.29L23.05 27.29L23.05 48.44L13.38 48.44L13.38 12.06ZM58.79 48.44L58.79 12.06L74.46 12.06Q78.52 12.06 81.56 13.66Q84.59 15.26 86.29 18.16Q87.99 21.07 87.99 24.95Q87.99 28.86 86.25 31.70Q84.52 34.55 81.40 36.10Q78.27 37.65 74.12 37.65L64.75 37.65L64.75 29.98L72.12 29.98Q73.88 29.98 75.12 29.36Q76.37 28.74 77.03 27.61Q77.69 26.49 77.69 24.95Q77.69 23.36 77.03 22.25Q76.37 21.14 75.12 20.56Q73.88 19.97 72.12 19.97L68.65 19.97L68.65 48.44L58.79 48.44ZM99.85 48.44L89.21 48.44L101.22 12.06L114.70 12.06L126.71 48.44L116.06 48.44L108.11 22.07L107.81 22.07L99.85 48.44M97.90 34.08L117.92 34.08L117.92 41.46L97.90 41.46L97.90 34.08ZM146.39 48.93Q141.41 48.93 137.44 46.78Q133.47 44.63 131.16 40.47Q128.86 36.30 128.86 30.27Q128.86 24.19 131.20 20.02Q133.54 15.84 137.52 13.71Q141.50 11.57 146.39 11.57Q149.83 11.57 152.73 12.51Q155.64 13.45 157.82 15.27Q160.01 17.09 161.33 19.71Q162.65 22.34 162.94 25.73L152.93 25.73Q152.83 24.49 152.38 23.46Q151.93 22.44 151.14 21.70Q150.34 20.97 149.23 20.57Q148.12 20.17 146.68 20.17Q144.21 20.17 142.49 21.37Q140.77 22.58 139.89 24.84Q139.01 27.10 139.01 30.27Q139.01 33.59 139.92 35.84Q140.82 38.09 142.52 39.21Q144.21 40.33 146.63 40.33Q148.00 40.33 149.07 39.99Q150.15 39.65 150.95 38.99Q151.76 38.33 152.26 37.40Q152.76 36.47 152.93 35.30L162.94 35.30Q162.77 37.62 161.66 40.03Q160.55 42.43 158.48 44.45Q156.42 46.46 153.41 47.69Q150.39 48.93 146.39 48.93ZM165.28 20.02L165.28 12.06L196.88 12.06L196.88 20.02L185.94 20.02L185.94 48.44L176.22 48.44L176.22 20.02L165.28 20.02Z"/></g></g></svg>