<svg xmlns="http://www.w3.org/2000/svg" viewBox="0 17.239999771118164 151.38999938964844 36.69000244140625" data-asc="1.06884765625" width="151.38999938964844" height="36.69000244140625"><defs/><g fill="#000000"><g transform="translate(0, 0)"><path d="M42.14 17.75L32.40 53.44L29.96 53.44L22.31 26.49Q22.05 25.63 21.84 24.87Q21.63 24.10 21.45 23.40Q21.26 22.71 21.11 22.08Q20.95 21.46 20.85 20.95Q20.75 21.46 20.64 22.03Q20.53 22.61 20.39 23.22Q20.24 23.83 20.07 24.49Q19.90 25.15 19.70 25.85L12.08 53.44L9.62 53.44L0 17.75L2.59 17.75L9.30 42.92Q9.57 43.92 9.80 44.82Q10.03 45.73 10.23 46.57Q10.42 47.41 10.61 48.21Q10.79 49.00 10.94 49.80Q11.11 49.00 11.28 48.17Q11.45 47.34 11.66 46.48Q11.87 45.63 12.10 44.71Q12.33 43.80 12.62 42.80L19.63 17.75L22.14 17.75L29.42 42.94Q29.71 43.99 29.96 44.92Q30.20 45.85 30.40 46.69Q30.59 47.53 30.76 48.33Q30.93 49.12 31.10 49.93Q31.30 48.83 31.51 47.77Q31.71 46.70 32.01 45.53Q32.30 44.36 32.67 42.97L39.53 17.75L42.14 17.75ZM70.70 53.44L65.84 40.82L50.85 40.82L45.90 53.44L43.33 53.44L57.37 17.63L59.67 17.63L73.34 53.44L70.70 53.44M65.04 38.55L60.11 25.17Q59.91 24.66 59.63 23.85Q59.35 23.05 59.05 22.14Q58.74 21.24 58.45 20.43Q58.20 21.29 57.91 22.14Q57.62 23.00 57.35 23.79Q57.08 24.58 56.84 25.22L51.71 38.55L65.04 38.55ZM98.05 44.24Q98.05 47.44 96.44 49.60Q94.82 51.76 92.07 52.84Q89.31 53.93 85.82 53.93Q83.64 53.93 81.87 53.72Q80.10 53.52 78.67 53.17Q77.25 52.83 76.07 52.39L76.07 49.88Q77.98 50.61 80.48 51.16Q82.98 51.71 85.94 51.71Q88.72 51.71 90.88 50.90Q93.04 50.10 94.29 48.46Q95.53 46.83 95.53 44.34Q95.53 42.14 94.49 40.73Q93.46 39.33 91.38 38.32Q89.31 37.30 86.16 36.25Q83.96 35.50 82.17 34.66Q80.37 33.81 79.10 32.70Q77.83 31.59 77.16 30.02Q76.49 28.44 76.49 26.29Q76.49 23.34 77.99 21.33Q79.49 19.31 82.07 18.27Q84.64 17.24 87.87 17.24Q90.43 17.24 92.74 17.71Q95.04 18.19 97.19 19.14L96.31 21.31Q94.17 20.39 92.02 19.95Q89.87 19.51 87.77 19.51Q85.25 19.51 83.29 20.25Q81.32 21.00 80.18 22.49Q79.03 23.97 79.03 26.25Q79.03 28.59 80.09 30.03Q81.15 31.47 83.12 32.42Q85.08 33.37 87.77 34.28Q90.94 35.35 93.24 36.54Q95.53 37.72 96.79 39.53Q98.05 41.33 98.05 44.24ZM114.99 53.44L112.45 53.44L112.45 20.02L100.88 20.02L100.88 17.75L126.56 17.75L126.56 20.02L114.99 20.02L114.99 53.44ZM151.39 53.44L131.88 53.44L131.88 17.75L151.39 17.75L151.39 20.02L134.40 20.02L134.40 33.54L150.44 33.54L150.44 35.82L134.40 35.82L134.40 51.17L151.39 51.17L151.39 53.44Z"/></g></g></svg>